# xmcd
#
# Track frame offsets: 
#        150
#        53457
#        72696
#        104235
#        112629
#        151668
#        165069
#        196155
#        204750
#        241626
#
# Disc length: 4440 seconds
#
# Revision: 1
# Processed by: cddbd v1.5.2PL0 Copyright (c) Steve Scherf et al.
# Submitted via: ExactAudioCopy v0.99pb4
#
DISCID=6c11560a
DTITLE=Kehlvin - The Mountain Daylight Time
DYEAR=2006
DGENRE=
TTITLE0=Albatross
TTITLE1=John Lemon
TTITLE2=How To Lie With Maps
TTITLE3=Band Over
TTITLE4=Frankenstein Bis
TTITLE5=Fat Freddy
TTITLE6=Moksa
TTITLE7=The Mountain Daylight Time
TTITLE8=Red Diesel Revolver
TTITLE9=1 Cabeza - 2 Brazos
EXTD=
EXTT0=
EXTT1=
EXTT2=
EXTT3=
EXTT4=
EXTT5=
EXTT6=
EXTT7=
EXTT8=
EXTT9=
PLAYORDER=
